<svg id="Layer" enable-background="new 0 0 512 512" height="17" viewBox="0 0 512 512" width="17" xmlns="http://www.w3.org/2000/svg"><path d="m111.875 352 129.546 99.064c4.186 3.202 9.309 4.936 14.579 4.936h24c13.255 0 24-10.745 24-24v-352c0-13.255-10.745-24-24-24h-24c-5.27 0-10.393 1.734-14.579 4.936l-129.546 99.064h-67.875c-24.262 0-44 19.738-44 44v104c0 24.262 19.738 44 44 44zm144.125-241.787v291.574l-112-85.647v-120.28zm-208 97.787h48v96h-48z"/><path d="m504.971 175.029c-9.373-9.373-24.568-9.373-33.941 0l-47.03 47.03-47.029-47.029c-9.373-9.373-24.568-9.373-33.941 0-9.372 9.373-9.372 24.568 0 33.941l47.029 47.029-47.029 47.029c-9.372 9.373-9.372 24.568 0 33.941 4.686 4.687 10.827 7.03 16.97 7.03s12.284-2.343 16.971-7.029l47.029-47.03 47.029 47.029c4.687 4.687 10.828 7.03 16.971 7.03s12.284-2.343 16.971-7.029c9.372-9.373 9.372-24.568 0-33.941l-47.03-47.03 47.029-47.029c9.373-9.373 9.373-24.569.001-33.942z"/></svg>